<svg width="1450" height="899" viewBox="0 0 1450 899" fill="none" xmlns="http://www.w3.org/2000/svg">
<rect opacity="0.3" width="1450" height="899" fill="white"/>
<mask id="mask0_442_153" style="mask-type:luminance" maskUnits="userSpaceOnUse" x="0" y="0" width="1450" height="899">
<rect width="1450" height="899" fill="white"/>
</mask>
<g mask="url(#mask0_442_153)">
<path opacity="0.05" fill-rule="evenodd" clip-rule="evenodd" d="M1449.63 -22.4788C1449.63 -22.4788 1328.75 5.45162 1244.3 130.436C1159.84 255.42 1238.59 352.964 1190.57 428.973C1142.55 504.981 1033.9 481.674 945.75 538.851C857.601 596.028 804.156 676.096 783.871 755.557C763.585 835.018 756.648 969.452 783.871 980.368C811.094 991.284 1449.63 980.368 1449.63 980.368V-22.4788Z" fill="#6FB1FC"/>
<path opacity="0.05" fill-rule="evenodd" clip-rule="evenodd" d="M1449.81 63.491C1449.81 63.491 1342.93 88.1894 1268.24 198.712C1193.56 309.234 1263.2 395.491 1220.74 462.704C1178.27 529.917 1082.19 509.307 1004.24 559.868C926.294 610.429 879.033 681.232 861.095 751.499C843.157 821.765 837.022 940.643 861.095 950.296C885.168 959.949 1449.81 950.296 1449.81 950.296V63.491Z" fill="#6FB1FC"/>
<path opacity="0.078" fill-rule="evenodd" clip-rule="evenodd" d="M1468.57 147.771C1468.57 147.771 1371.79 170.134 1304.16 270.21C1236.53 370.285 1299.59 448.389 1261.14 509.249C1222.7 570.109 1135.7 551.446 1065.11 597.228C994.532 643.01 951.739 707.121 935.496 770.746C919.254 834.37 913.699 942.011 935.496 950.752C957.294 959.492 1468.57 950.752 1468.57 950.752V147.771Z" fill="#6FB1FC"/>
<path opacity="0.05" fill-rule="evenodd" clip-rule="evenodd" d="M-8.0657 -22.4788C-8.0657 -22.4788 112.805 5.45162 197.265 130.436C281.725 255.42 202.968 352.964 250.987 428.973C299.005 504.981 407.661 481.674 495.81 538.851C583.959 596.028 637.404 676.096 657.69 755.557C677.975 835.018 684.913 969.452 657.69 980.368C630.467 991.284 -8.0657 980.368 -8.0657 980.368V-22.4788Z" fill="#6FB1FC"/>
<path opacity="0.05" fill-rule="evenodd" clip-rule="evenodd" d="M-8.2539 63.491C-8.2539 63.491 98.6308 88.1894 173.318 198.712C248.005 309.234 178.361 395.491 220.823 462.704C263.285 529.917 359.368 509.307 437.317 559.868C515.266 610.429 562.527 681.232 580.465 751.499C598.404 821.765 604.538 940.643 580.465 950.296C556.392 959.949 -8.2539 950.296 -8.2539 950.296V63.491Z" fill="#6FB1FC"/>
<path opacity="0.078" fill-rule="evenodd" clip-rule="evenodd" d="M-27.008 147.771C-27.008 147.771 69.7737 170.134 137.401 270.21C205.028 370.285 141.967 448.389 180.416 509.249C218.865 570.109 305.865 551.446 376.446 597.228C447.028 643.01 489.821 707.121 506.064 770.746C522.307 834.37 527.861 942.011 506.064 950.752C484.266 959.492 -27.008 950.752 -27.008 950.752V147.771Z" fill="#6FB1FC"/>
</g>
</svg>
