<svg width="64" height="64" viewBox="0 0 64 64" fill="none" xmlns="http://www.w3.org/2000/svg">
<rect width="64" height="64" rx="4" fill="#3EC5FA"/>
<g clip-path="url(#clip0_415_59)">
<path d="M45.5601 30.3467L33.8267 20.1467C32.7867 19.24 31.2401 19.24 30.2001 20.1467L18.4667 30.3467C17.7734 30.9467 18.2001 32.0933 19.1201 32.0933H22.5867V42.0933C22.5867 43.6133 23.8267 44.8533 25.3467 44.8533H28.6667V37.12C28.6667 36.3867 29.2667 35.7867 30.0001 35.7867H34.0001C34.7334 35.7867 35.3334 36.3867 35.3334 37.12V44.8533H38.6534C40.1734 44.8533 41.4134 43.6133 41.4134 42.0933V32.0933H44.8801C45.8267 32.08 46.2534 30.9467 45.5601 30.3467Z" stroke="white" stroke-width="2" stroke-miterlimit="10" stroke-linecap="round" stroke-linejoin="round"/>
</g>
<defs>
<clipPath id="clip0_415_59">
<rect width="29.3733" height="26.9733" fill="white" transform="translate(17.3334 18.6666)"/>
</clipPath>
</defs>
</svg>
