<svg width="90" height="90" viewBox="0 0 90 90" fill="none" xmlns="http://www.w3.org/2000/svg">
<rect width="90" height="90" rx="8" fill="#EDF1FC"/>
<path d="M53.25 35H35.75C34.7554 35 33.8016 35.4001 33.0983 36.1123C32.3951 36.8244 32 37.7903 32 38.7975V51.4557C32 52.4628 32.3951 53.4287 33.0983 54.1409C33.8016 54.8531 34.7554 55.2532 35.75 55.2532H53.25C54.2446 55.2532 55.1984 54.8531 55.9017 54.1409C56.6049 53.4287 57 52.4628 57 51.4557V38.7975C57 37.7903 56.6049 36.8244 55.9017 36.1123C55.1984 35.4001 54.2446 35 53.25 35V35ZM53.25 37.5316L45.125 43.1899C44.935 43.301 44.7194 43.3595 44.5 43.3595C44.2806 43.3595 44.065 43.301 43.875 43.1899L35.75 37.5316H53.25Z" fill="#3EC5FA"/>
</svg>
