<svg width="90" height="90" viewBox="0 0 90 90" fill="none" xmlns="http://www.w3.org/2000/svg">
<rect width="90" height="90" rx="8" fill="#EDF1FC"/>
<path d="M48.6677 49.7673L50.8205 47.6137C51.1104 47.3273 51.4773 47.1312 51.8765 47.0492C52.2757 46.9673 52.6901 47.0031 53.0693 47.1522L55.693 48.2002C56.0762 48.3558 56.4049 48.6215 56.6375 48.9637C56.8701 49.3059 56.9962 49.7093 57 50.1231V54.9302C56.9978 55.2117 56.9386 55.4898 56.8261 55.7479C56.7136 56.0059 56.5501 56.2384 56.3454 56.4316C56.1406 56.6247 55.899 56.7744 55.6349 56.8716C55.3708 56.9688 55.0898 57.0116 54.8088 56.9973C36.424 55.8532 32.7144 40.278 32.0128 34.3171C31.9802 34.0244 32.01 33.7281 32.1001 33.4477C32.1902 33.1673 32.3387 32.9092 32.5357 32.6903C32.7327 32.4714 32.9738 32.2967 33.2431 32.1778C33.5124 32.0588 33.8039 31.9982 34.0983 32H38.7401C39.1543 32.0013 39.5587 32.1264 39.9013 32.3595C40.2438 32.5925 40.5088 32.9227 40.6622 33.3076L41.7098 35.9323C41.8638 36.3102 41.9031 36.7251 41.8227 37.1253C41.7424 37.5254 41.546 37.893 41.2581 38.1821L39.1053 40.3357C39.1053 40.3357 40.3451 48.729 48.6677 49.7673Z" fill="#3EC5FA"/>
</svg>
