<svg width="90" height="90" viewBox="0 0 90 90" fill="none" xmlns="http://www.w3.org/2000/svg">
<rect width="90" height="90" rx="8" fill="#EDF1FC"/>
<path d="M45.5 29C42.186 29.0039 39.0088 30.3265 36.6655 32.6776C34.3221 35.0287 33.0039 38.2163 33 41.5412C32.996 44.2583 33.8807 46.9018 35.5182 49.0659C35.5182 49.0659 35.8591 49.5163 35.9148 49.5813L45.5 60.9231L55.0898 49.5756C55.1398 49.5151 55.4818 49.0659 55.4818 49.0659L55.4829 49.0625C57.1197 46.8993 58.0039 44.2571 58 41.5412C57.9961 38.2163 56.6779 35.0287 54.3345 32.6776C51.9912 30.3265 48.814 29.0039 45.5 29V29ZM45.5 46.1016C44.601 46.1016 43.7222 45.8342 42.9747 45.3331C42.2272 44.832 41.6446 44.1197 41.3006 43.2864C40.9565 42.4531 40.8665 41.5362 41.0419 40.6515C41.2173 39.7669 41.6502 38.9543 42.2859 38.3165C42.9216 37.6787 43.7315 37.2444 44.6132 37.0684C45.495 36.8924 46.4089 36.9827 47.2395 37.3279C48.07 37.6731 48.7799 38.2576 49.2794 39.0076C49.7789 39.7575 50.0454 40.6392 50.0454 41.5412C50.0439 42.7502 49.5646 43.9093 48.7125 44.7643C47.8603 45.6192 46.7051 46.1001 45.5 46.1016V46.1016Z" fill="#3EC5FA"/>
</svg>
