<svg width="50" height="50" viewBox="0 0 50 50" fill="none" xmlns="http://www.w3.org/2000/svg">
<circle cx="25" cy="25" r="25" fill="#3EC5FA"/>
<path d="M34.9954 22.1281C34.9954 22.126 34.9957 22.1238 34.9957 22.1216C34.9957 19.4922 32.8642 17.3607 30.2348 17.3607C27.6053 17.3607 25.4739 19.4922 25.4739 22.1216C25.4739 24.7511 27.6056 26.8826 30.2348 26.8826C30.7752 26.8826 31.2925 26.7884 31.7765 26.6224C30.7054 32.7671 25.9136 36.7299 30.3555 33.4685C35.2809 29.8519 35.001 22.2669 34.9954 22.1281Z" fill="white"/>
<path d="M19.7609 26.8825C20.3013 26.8825 20.8186 26.7883 21.3028 26.6224C20.2314 32.7671 15.4397 36.7298 19.8816 33.4684C24.8071 29.8519 24.5271 22.2669 24.5216 22.1281C24.5216 22.126 24.5218 22.1238 24.5218 22.1216C24.5218 19.4922 22.3903 17.3607 19.7609 17.3607C17.1315 17.3607 15 19.4922 15 22.1216C15 24.7511 17.1317 26.8825 19.7609 26.8825Z" fill="white"/>
</svg>
