<svg width="120" height="120" viewBox="0 0 120 120" fill="none" xmlns="http://www.w3.org/2000/svg">
<rect width="120" height="120" rx="8" fill="#EDF1FC"/>
<path d="M64.1668 39.1667H47.5002C46.3951 39.1667 45.3353 39.6057 44.5539 40.3871C43.7725 41.1685 43.3335 42.2283 43.3335 43.3334V76.6667C43.3335 77.7718 43.7725 78.8316 44.5539 79.613C45.3353 80.3944 46.3951 80.8334 47.5002 80.8334H72.5002C73.6052 80.8334 74.665 80.3944 75.4464 79.613C76.2278 78.8316 76.6668 77.7718 76.6668 76.6667V51.6667L64.1668 39.1667Z" stroke="#3EC5FA" stroke-width="3" stroke-linecap="round" stroke-linejoin="round"/>
<path d="M64.1665 39.1667V51.6667H76.6665" stroke="#3EC5FA" stroke-width="3" stroke-linecap="round" stroke-linejoin="round"/>
<path d="M68.3332 62.0834H51.6665" stroke="#3EC5FA" stroke-width="3" stroke-linecap="round" stroke-linejoin="round"/>
<path d="M68.3332 70.4167H51.6665" stroke="#3EC5FA" stroke-width="3" stroke-linecap="round" stroke-linejoin="round"/>
<path d="M55.8332 53.75H53.7498H51.6665" stroke="#3EC5FA" stroke-width="3" stroke-linecap="round" stroke-linejoin="round"/>
</svg>
