<svg width="38" height="37" viewBox="0 0 38 37" fill="none" xmlns="http://www.w3.org/2000/svg">
<circle cx="18.9819" cy="18.4977" r="18.4977" fill="#3EC5FA"/>
<g clip-path="url(#clip0_441_128)">
<path d="M27.8454 14.2639C27.7407 13.8903 27.5366 13.552 27.255 13.2851C26.9654 13.01 26.6105 12.8131 26.2238 12.7132C24.7763 12.3317 18.9773 12.3317 18.9773 12.3317C16.5597 12.3042 14.1427 12.4252 11.74 12.694C11.3533 12.8012 10.999 13.0025 10.7088 13.2797C10.4236 13.5541 10.217 13.8924 10.1091 14.2632C9.84994 15.6596 9.724 17.0774 9.73302 18.4976C9.72377 19.9165 9.8494 21.3339 10.1091 22.7321C10.2147 23.1012 10.4205 23.4381 10.7065 23.7101C10.9924 23.9822 11.3485 24.1787 11.74 24.2828C13.2067 24.6635 18.9773 24.6635 18.9773 24.6635C21.3979 24.6911 23.8179 24.5701 26.2238 24.3013C26.6105 24.2014 26.9654 24.0045 27.255 23.7294C27.5402 23.4573 27.7429 23.119 27.8446 22.7506C28.1106 21.3547 28.2399 19.9363 28.2308 18.5153C28.2508 17.0884 28.1216 15.6633 27.8454 14.2632V14.2639ZM17.1337 21.1366V15.8594L21.9585 18.4984L17.1337 21.1366Z" fill="white"/>
</g>
<defs>
<clipPath id="clip0_441_128">
<rect width="18.4977" height="18.4977" fill="white" transform="translate(9.73303 9.24878)"/>
</clipPath>
</defs>
</svg>
